<svg xmlns="http://www.w3.org/2000/svg" width="512" height="512" viewBox="0 0 512 512">
    
  <defs>
    <linearGradient id="bg" x1="0" y1="0" x2="0" y2="512" gradientUnits="userSpaceOnUse">
      <stop offset="0" stop-color="#0e4b56"/>
      <stop offset="1" stop-color="#08303a"/>
    </linearGradient>
    <linearGradient id="fish" x1="160" y1="170" x2="410" y2="340" gradientUnits="userSpaceOnUse">
      <stop offset="0" stop-color="#ffffff"/>
      <stop offset="1" stop-color="#d7f2ec"/>
    </linearGradient>
  </defs>

    <rect x="0" y="0" width="512" height="512" rx="112" ry="112" fill="url(#bg)"/>
    <g transform="translate(256,256) scale(1.06) translate(-256,-256)">
  <!-- queue -->
  <path d="M196,256 L146,212 C166,240 166,272 146,300 L196,256 Z" fill="url(#fish)"/>
  <!-- corps -->
  <path d="M196,256 C196,206 240,176 300,180 C346,183 382,212 404,256 C382,300 346,329 300,332 C240,336 196,306 196,256 Z" fill="url(#fish)"/>
  <!-- nageoire dorsale -->
  <path d="M276,182 C292,150 320,150 332,176 C314,176 296,180 276,182 Z" fill="#2aa394"/>
  <!-- nageoire ventrale -->
  <path d="M286,330 C296,356 318,356 326,336 C312,334 298,332 286,330 Z" fill="#2aa394"/>
  <!-- oeil -->
  <circle cx="356" cy="238" r="13" fill="#08303a"/>
  <!-- bulles -->
  <circle cx="424" cy="224" r="9" fill="#5ec9bb"/>
  <circle cx="446" cy="206" r="6" fill="#5ec9bb"/>
  <circle cx="420" cy="251" r="5" fill="#5ec9bb"/>
</g>
  </svg>